<?xml version="1.0" encoding="utf-8"?>
<svg version="1.1" id="Layer_1"
xmlns="http://www.w3.org/2000/svg"
xmlns:xlink="http://www.w3.org/1999/xlink"
width="393px" height="101px"
xml:space="preserve">
<g id="PathID_37" transform="matrix(0.543173, -0.000120799, 0.512241, -0.800571, -28.2, 79)" opacity="0.19">
<radialGradient
id="RadialGradID_6" gradientUnits="userSpaceOnUse" gradientTransform="matrix(0.0872803, 0, 0, 0.0499268, 71.5, 40.9)" spreadMethod ="pad" cx="0" cy="0" r="819.2" fx="0" fy="0" >
<stop  offset="0"  style="stop-color:#C1FD79;stop-opacity:1" />
<stop  offset="1"  style="stop-color:#85C13D;stop-opacity:1" />
</radialGradient>
<path style="fill:url(#RadialGradID_6) " d="M143 81.8L0 81.8L143 0L143 81.8" />
</g>
<g id="PathID_38" transform="matrix(0.543173, -0.000120799, 0.512241, -0.800571, -28.2, 79)" opacity="0.19">
</g>
<g id="PathID_39" transform="matrix(0.328264, -0.016719, -0.181682, 0.599423, 72.1, 11.25)" opacity="0.29">
<linearGradient
id="LinearGradID_7" gradientUnits="userSpaceOnUse" gradientTransform="matrix(0.0884488, 0.0155959, -0.0155959, 0.0884488, 73.55, 64)" spreadMethod ="pad" x1="-819.2" y1="0" x2="819.2" y2="0" >
<stop  offset="0" style="stop-color:#47ABE8;stop-opacity:1" />
<stop  offset="0.635294" style="stop-color:#2286C3;stop-opacity:1" />
</linearGradient>
<path style="fill:url(#LinearGradID_7) " d="M0 128L73.25 0L147.15 128L0 128" />
</g>
<g id="PathID_40" transform="matrix(0.328264, -0.016719, -0.181682, 0.599423, 72.1, 11.25)" opacity="0.29">
</g>
<g id="PathID_41" transform="matrix(0.986391, 0, 0, 0.986391, 101.75, 70.1)" opacity="1">
<path style="fill:#EAA52C;fill-opacity:1" d="M1.8 -11.9L9 -12.6Q9.65 -8.95 11.6 -7.25Q13.6 -5.55 17 -5.55Q20.55 -5.55 22.35 -7.05Q24.2 -8.55 24.2 -10.6Q24.2 -11.9 23.4 -12.8Q22.65 -13.75 20.75 -14.4Q19.45 -14.85 14.85 -16Q8.95 -17.5 6.55 -19.65Q3.2 -22.65 3.2 -27.05Q3.2 -29.85 4.75 -32.25Q6.35 -34.7 9.3 -36Q12.3 -37.3 16.5 -37.3Q23.4 -37.3 26.85 -34.25Q30.35 -31.2 30.55 -26.15L23.15 -25.85Q22.65 -28.65 21.1 -29.9Q19.55 -31.15 16.45 -31.15Q13.25 -31.15 11.45 -29.8Q10.3 -28.95 10.3 -27.5Q10.3 -26.2 11.35 -25.3Q12.75 -24.1 18.1 -22.8Q23.5 -21.55 26.05 -20.2Q28.65 -18.85 30.1 -16.45Q31.6 -14.1 31.6 -10.6Q31.6 -7.45 29.85 -4.7Q28.1 -1.95 24.9 -0.6Q21.7 0.7 16.9 0.7Q9.95 0.7 6.2 -2.5Q2.5 -5.7 1.8 -11.9" />
</g>
<g id="PathID_42" transform="matrix(0.986391, 0, 0, 0.986391, 101.75, 70.1)" opacity="1">
</g>
<g id="PathID_43" transform="matrix(0.986391, 0, 0, 0.986391, 132.6, 70.1)" opacity="1">
<path style="fill:#EAA52C;fill-opacity:1" d="M3.7 -30.15L3.7 -36.65L10.75 -36.65L10.75 -30.15L3.7 -30.15M3.7 0L3.7 -26.55L10.75 -26.55L10.75 0L3.7 0" />
</g>
<g id="PathID_44" transform="matrix(0.986391, 0, 0, 0.986391, 132.6, 70.1)" opacity="1">
</g>
<g id="PathID_45" transform="matrix(0.986391, 0, 0, 0.986391, 143.85, 70.1)" opacity="1">
<path style="fill:#EAA52C;fill-opacity:1" d="M3.4 0L3.4 -36.65L10.45 -36.65L10.45 -23.45Q13.65 -27.15 18.1 -27.15Q22.95 -27.15 26.1 -23.6Q29.3 -20.1 29.3 -13.55Q29.3 -6.75 26.05 -3.05Q22.8 0.6 18.2 0.6Q15.95 0.6 13.7 -0.5Q11.5 -1.65 9.95 -3.9L9.95 0L3.4 0M10.35 -13.8Q10.35 -9.7 11.65 -7.7Q13.45 -4.95 16.5 -4.95Q18.8 -4.95 20.45 -6.9Q22.1 -8.9 22.1 -13.15Q22.1 -17.7 20.45 -19.7Q18.8 -21.75 16.2 -21.75Q13.7 -21.75 12 -19.75Q10.35 -17.8 10.35 -13.8" />
</g>
<g id="PathID_46" transform="matrix(0.986391, 0, 0, 0.986391, 143.85, 70.1)" opacity="1">
</g>
<g id="PathID_47" transform="matrix(0.986391, 0, 0, 0.986391, 176.4, 70.1)" opacity="1">
<path style="fill:#85C13D;fill-opacity:1" d="M2.35 -11.8L6.95 -12.2Q7.25 -9.45 8.4 -7.65Q9.6 -5.9 12.1 -4.8Q14.6 -3.75 17.7 -3.75Q20.45 -3.75 22.55 -4.55Q24.65 -5.4 25.7 -6.8Q26.75 -8.25 26.75 -9.95Q26.75 -11.65 25.75 -12.9Q24.75 -14.2 22.45 -15.1Q21 -15.65 15.95 -16.85Q10.95 -18.1 8.95 -19.15Q6.3 -20.55 5 -22.6Q3.75 -24.65 3.75 -27.15Q3.75 -29.95 5.3 -32.35Q6.85 -34.75 9.85 -36Q12.9 -37.3 16.6 -37.3Q20.65 -37.3 23.75 -35.95Q26.85 -34.65 28.5 -32.1Q30.2 -29.55 30.35 -26.35L25.7 -26Q25.3 -29.4 23.15 -31.15Q21 -32.95 16.8 -32.95Q12.45 -32.95 10.45 -31.3Q8.45 -29.7 8.45 -27.45Q8.45 -25.45 9.85 -24.2Q11.25 -22.95 17.1 -21.6Q23 -20.25 25.2 -19.25Q28.4 -17.8 29.9 -15.5Q31.45 -13.25 31.45 -10.35Q31.45 -7.4 29.75 -4.8Q28.1 -2.25 24.95 -0.8Q21.85 0.6 17.9 0.6Q12.95 0.6 9.6 -0.85Q6.25 -2.3 4.35 -5.2Q2.45 -8.1 2.35 -11.8" />
</g>
<g id="PathID_48" transform="matrix(0.986391, 0, 0, 0.986391, 176.4, 70.1)" opacity="1">
</g>
<g id="PathID_49" transform="matrix(0.986391, 0, 0, 0.986391, 207.25, 70.1)" opacity="1">
<path style="fill:#85C13D;fill-opacity:1" d="M21.55 -8.6L26.2 -8Q25.1 -3.9 22.1 -1.65Q19.15 0.6 14.5 0.6Q8.7 0.6 5.3 -2.95Q1.9 -6.55 1.9 -13.05Q1.9 -19.75 5.3 -23.45Q8.75 -27.15 14.25 -27.15Q19.6 -27.15 22.95 -23.5Q26.35 -19.9 26.35 -13.3L26.3 -12.15L6.55 -12.15Q6.75 -7.75 8.95 -5.4Q11.2 -3.1 14.55 -3.1Q17 -3.1 18.75 -4.4Q20.5 -5.7 21.55 -8.6M6.8 -15.85L21.6 -15.85Q21.3 -19.15 19.9 -20.85Q17.75 -23.45 14.3 -23.45Q11.2 -23.45 9.1 -21.35Q7 -19.3 6.8 -15.85" />
</g>
<g id="PathID_50" transform="matrix(0.986391, 0, 0, 0.986391, 207.25, 70.1)" opacity="1">
</g>
<g id="PathID_51" transform="matrix(0.986391, 0, 0, 0.986391, 232.5, 70.1)" opacity="1">
<path style="fill:#85C13D;fill-opacity:1" d="M3.35 0L3.35 -26.55L7.4 -26.55L7.4 -22.5Q8.9 -25.35 10.2 -26.25Q11.55 -27.15 13.1 -27.15Q15.4 -27.15 17.75 -25.7L16.15 -21.5Q14.55 -22.5 12.9 -22.5Q11.4 -22.5 10.2 -21.6Q9.05 -20.7 8.55 -19.15Q7.85 -16.75 7.85 -13.9L7.85 0L3.35 0" />
</g>
<g id="PathID_52" transform="matrix(0.986391, 0, 0, 0.986391, 232.5, 70.1)" opacity="1">
</g>
<g id="PathID_53" transform="matrix(0.986391, 0, 0, 0.986391, 246.5, 70.1)" opacity="1">
<path style="fill:#85C13D;fill-opacity:1" d="M10.7 0L0.6 -26.55L5.4 -26.55L11.1 -10.65Q12 -8.05 12.8 -5.3Q13.4 -7.4 14.5 -10.35L20.4 -26.55L25.05 -26.55L14.95 0L10.7 0" />
</g>
<g id="PathID_54" transform="matrix(0.986391, 0, 0, 0.986391, 246.5, 70.1)" opacity="1">
</g>
<g id="PathID_55" transform="matrix(0.986391, 0, 0, 0.986391, 268.9, 70.1)" opacity="1">
<path style="fill:#85C13D;fill-opacity:1" d="M3.4 -31.5L3.4 -36.65L7.9 -36.65L7.9 -31.5L3.4 -31.5M3.4 0L3.4 -26.55L7.9 -26.55L7.9 0L3.4 0" />
</g>
<g id="PathID_56" transform="matrix(0.986391, 0, 0, 0.986391, 268.9, 70.1)" opacity="1">
</g>
<g id="PathID_57" transform="matrix(0.986391, 0, 0, 0.986391, 277.35, 70.1)" opacity="1">
<path style="fill:#85C13D;fill-opacity:1" d="M20.65 -9.75L25.1 -9.15Q24.35 -4.55 21.35 -1.95Q18.4 0.6 14.05 0.6Q8.65 0.6 5.35 -2.95Q2.05 -6.5 2.05 -13.15Q2.05 -17.45 3.45 -20.65Q4.85 -23.9 7.75 -25.5Q10.65 -27.15 14.05 -27.15Q18.4 -27.15 21.1 -24.95Q23.85 -22.8 24.65 -18.8L20.25 -18.1Q19.6 -20.75 18 -22.1Q16.45 -23.45 14.25 -23.45Q10.9 -23.45 8.8 -21Q6.7 -18.55 6.7 -13.3Q6.7 -7.95 8.7 -5.5Q10.75 -3.1 14 -3.1Q16.65 -3.1 18.4 -4.7Q20.15 -6.35 20.65 -9.75" />
</g>
<g id="PathID_58" transform="matrix(0.986391, 0, 0, 0.986391, 277.35, 70.1)" opacity="1">
</g>
<g id="PathID_59" transform="matrix(0.986391, 0, 0, 0.986391, 299.8, 70.1)" opacity="1">
<path style="fill:#85C13D;fill-opacity:1" d="M21.55 -8.6L26.2 -8Q25.1 -3.9 22.1 -1.65Q19.15 0.6 14.5 0.6Q8.7 0.6 5.3 -2.95Q1.9 -6.55 1.9 -13.05Q1.9 -19.75 5.3 -23.45Q8.75 -27.15 14.25 -27.15Q19.6 -27.15 22.95 -23.5Q26.35 -19.9 26.35 -13.3L26.3 -12.15L6.55 -12.15Q6.75 -7.75 8.95 -5.4Q11.2 -3.1 14.55 -3.1Q17 -3.1 18.75 -4.4Q20.5 -5.7 21.55 -8.6M6.8 -15.85L21.6 -15.85Q21.3 -19.15 19.9 -20.85Q17.75 -23.45 14.3 -23.45Q11.2 -23.45 9.1 -21.35Q7 -19.3 6.8 -15.85" />
</g>
<g id="PathID_60" transform="matrix(0.986391, 0, 0, 0.986391, 299.8, 70.1)" opacity="1">
</g>
<g id="PathID_61" transform="matrix(0.50256, -0.000111767, 0.473941, -0.740712, -26.35, 82.75)" opacity="1">
<radialGradient
id="RadialGradID_8" gradientUnits="userSpaceOnUse" gradientTransform="matrix(0.0872803, 0, 0, 0.0499268, 71.5, 40.9)" spreadMethod ="pad" cx="0" cy="0" r="819.2" fx="0" fy="0" >
<stop  offset="0"  style="stop-color:#C1FD79;stop-opacity:1" />
<stop  offset="1"  style="stop-color:#85C13D;stop-opacity:1" />
</radialGradient>
<path style="fill:url(#RadialGradID_8) " d="M143 81.8L0 81.8L143 0L143 81.8" />
</g>
<g id="PathID_62" transform="matrix(0.50256, -0.000111767, 0.473941, -0.740712, -26.35, 82.75)" opacity="1">
</g>
<g id="PathID_63" transform="matrix(0.282132, -0.0143694, -0.15615, 0.515184, 66.4, 22.65)" opacity="1">
<linearGradient
id="LinearGradID_9" gradientUnits="userSpaceOnUse" gradientTransform="matrix(0.0884488, 0.0155959, -0.0155959, 0.0884488, 73.55, 64)" spreadMethod ="pad" x1="-819.2" y1="0" x2="819.2" y2="0" >
<stop  offset="0" style="stop-color:#47ABE8;stop-opacity:1" />
<stop  offset="0.635294" style="stop-color:#2286C3;stop-opacity:1" />
</linearGradient>
<path style="fill:url(#LinearGradID_9) " d="M0 128L73.25 0L147.15 128L0 128" />
</g>
<g id="PathID_64" transform="matrix(0.282132, -0.0143694, -0.15615, 0.515184, 66.4, 22.65)" opacity="1">
</g>
<g id="PathID_65" transform="matrix(0.232956, -0.00885132, 0, 0.455176, 10, 21.95)" opacity="1">
<radialGradient
id="RadialGradID_10" gradientUnits="userSpaceOnUse" gradientTransform="matrix(0.0910339, 0, 0, 0.0915527, 74.55, 75)" spreadMethod ="pad" cx="0" cy="0" r="819.2" fx="0" fy="0" >
<stop  offset="0"  style="stop-color:#FFE168;stop-opacity:1" />
<stop  offset="1"  style="stop-color:#EAA52C;stop-opacity:1" />
</radialGradient>
<path style="fill:url(#RadialGradID_10) " d="M0 150L0 0L149.15 150L0 150" />
</g>
<g id="PathID_66" transform="matrix(0.232956, -0.00885132, 0, 0.455176, 10, 21.95)" opacity="1">
</g>
<g id="PathID_67" transform="matrix(0.703125, 0, 0, 0.703125, 327.55, 70.95)" opacity="1">
<path style="fill:#2286C3;fill-opacity:1" d="M4.65 0L4.65 -5.15L9.8 -5.15L9.8 0L4.65 0" />
</g>
<g id="PathID_68" transform="matrix(0.703125, 0, 0, 0.703125, 327.55, 70.95)" opacity="1">
</g>
<g id="PathID_69" transform="matrix(0.703125, 0, 0, 0.703125, 335.55, 70.95)" opacity="1">
<path style="fill:#2286C3;fill-opacity:1" d="M13.3 0L13.3 -32.3L1.2 -32.3L1.2 -36.65L30.25 -36.65L30.25 -32.3L18.15 -32.3L18.15 0L13.3 0" />
</g>
<g id="PathID_70" transform="matrix(0.703125, 0, 0, 0.703125, 335.55, 70.95)" opacity="1">
</g>
<g id="PathID_71" transform="matrix(0.703125, 0, 0, 0.703125, 355.55, 70.95)" opacity="1">
<path style="fill:#2286C3;fill-opacity:1" d="M3.75 0L3.75 -36.65L8.6 -36.65L8.6 -18.5L26.75 -36.65L33.35 -36.65L18 -21.75L34.05 0L27.65 0L14.6 -18.5L8.6 -12.7L8.6 0L3.75 0" />
</g>
<g id="PathID_72" transform="matrix(0.703125, 0, 0, 0.703125, 355.55, 70.95)" opacity="1">
</g>
</svg>
